<svg width="67" height="86" viewBox="0 0 67 86" fill="none" xmlns="http://www.w3.org/2000/svg">
<rect x="0.175781" y="0.715027" width="66" height="85" rx="15" fill="#E5F6FF"/>
<mask id="mask0_1452_184" style="mask-type:luminance" maskUnits="userSpaceOnUse" x="17" y="12" width="33" height="59">
<path d="M17.668 12.2236H49.7579V70.7621H17.668V12.2236Z" fill="white"/>
</mask>
<g mask="url(#mask0_1452_184)">
<path d="M27.1541 15.8219C27.1541 14.7649 28.0179 13.9051 29.0783 13.9051H38.3475C39.4079 13.9051 40.2718 14.7649 40.2718 15.8219V28.8742H39.3147V29.659H28.1111V28.8742H27.1541V15.8219ZM46.4197 29.659H42.917V28.8742H41.96V15.8219C41.96 13.8339 40.3432 12.2236 38.3475 12.2236H29.0783C27.0826 12.2236 25.4659 13.8339 25.4659 15.8219V28.8742H24.5088V29.659H21.0061C19.1622 29.659 17.668 31.1471 17.668 32.9825V66.0293C17.668 67.8647 19.1622 69.3528 21.0061 69.3528H21.2154C21.2154 70.0956 21.8202 70.6985 22.5654 70.6985H44.8604C45.6069 70.6985 46.2117 70.0956 46.2117 69.3528H46.4197C48.2636 69.3528 49.7579 67.8647 49.7579 66.0293V32.9825C49.7579 31.1471 48.2636 29.659 46.4197 29.659Z" fill="#02276E"/>
</g>
<path d="M27.0165 57.783L22.4257 44.8907H26.7073L30.3466 55.666H28.301L32.083 44.8907H35.9364L39.5757 55.666H37.5777L41.3359 44.8907H45.3082L40.7175 57.783H36.3408L33.2485 48.8631H34.5806L31.3932 57.783H27.0165Z" fill="white"/>
<g clip-path="url(#clip0_1452_184)">
<path d="M17.7393 66.8994V58.5693C36.0867 65.2334 46.9504 64.88 50.0888 63.8703V65.6373V66.1422V66.8994C48.8817 69.6761 47.4332 69.592 46.709 69.4237C46.9021 69.6256 46.2261 70.9383 45.5019 70.9383H22.5675C21.4088 70.9383 21.28 69.9286 21.3605 69.4237C19.6223 70.0295 18.2221 67.9933 17.7393 66.8994Z" fill="#F88F26"/>
</g>
<mask id="mask1_1452_184" style="mask-type:luminance" maskUnits="userSpaceOnUse" x="40" y="70" width="4" height="4">
<path d="M40.209 70.2343H43.8023V73.7015H40.209V70.2343Z" fill="white"/>
</mask>
<g mask="url(#mask1_1452_184)">
<path d="M43.792 71.9335C43.792 72.862 43.0354 73.615 42.1026 73.615C41.1698 73.615 40.4131 72.862 40.4131 71.9335C40.4131 71.0038 41.1698 70.2508 42.1026 70.2508C43.0354 70.2508 43.792 71.0038 43.792 71.9335Z" fill="#F88F26"/>
</g>
<mask id="mask2_1452_184" style="mask-type:luminance" maskUnits="userSpaceOnUse" x="23" y="70" width="5" height="4">
<path d="M23.5498 70.2343H27.3556V73.7015H23.5498V70.2343Z" fill="white"/>
</mask>
<g mask="url(#mask2_1452_184)">
<path d="M27.219 71.9335C27.219 72.862 26.4176 73.615 25.4296 73.615C24.4417 73.615 23.6416 72.862 23.6416 71.9335C23.6416 71.0038 24.4417 70.2508 25.4296 70.2508C26.4176 70.2508 27.219 71.0038 27.219 71.9335Z" fill="#F88F26"/>
</g>
<defs>
<clipPath id="clip0_1452_184">
<rect width="32.0879" height="58.5383" fill="white" transform="translate(17.7393 12.4237)"/>
</clipPath>
</defs>
</svg>
